<mxfile host="app.diagrams.net" agent="Mozilla/5.0 (Windows NT 10.0; Win64; x64) AppleWebKit/537.36 (KHTML, like Gecko) Chrome/135.0.0.0 Safari/537.36" version="26.2.14">
  <diagram id="prtHgNgQTEPvFCAcTncT" name="Page-1">
    <mxGraphModel dx="1303" dy="659" grid="1" gridSize="10" guides="1" tooltips="1" connect="1" arrows="1" fold="1" page="1" pageScale="1" pageWidth="827" pageHeight="1169" background="#ffffff" math="0" shadow="0">
      <root>
        <mxCell id="0" />
        <mxCell id="1" parent="0" />
        <mxCell id="dNxyNK7c78bLwvsdeMH5-19" value="User story" style="swimlane;html=1;childLayout=stackLayout;resizeParent=1;resizeParentMax=0;horizontal=0;startSize=20;horizontalStack=0;" parent="1" vertex="1">
          <mxGeometry x="120" y="40" width="450" height="590" as="geometry" />
        </mxCell>
        <mxCell id="dNxyNK7c78bLwvsdeMH5-20" value="Product Manager" style="swimlane;html=1;startSize=20;horizontal=0;fontSize=12;" parent="dNxyNK7c78bLwvsdeMH5-19" vertex="1">
          <mxGeometry x="20" width="430" height="110" as="geometry" />
        </mxCell>
        <mxCell id="s78XeC1ukGy34A1hPwvS-7" value="" style="edgeStyle=orthogonalEdgeStyle;rounded=0;orthogonalLoop=1;jettySize=auto;html=1;" edge="1" parent="dNxyNK7c78bLwvsdeMH5-20" source="s78XeC1ukGy34A1hPwvS-5" target="s78XeC1ukGy34A1hPwvS-6">
          <mxGeometry relative="1" as="geometry" />
        </mxCell>
        <mxCell id="s78XeC1ukGy34A1hPwvS-5" value="PRD&lt;br&gt;Creation" style="points=[[0.145,0.145,0],[0.5,0,0],[0.855,0.145,0],[1,0.5,0],[0.855,0.855,0],[0.5,1,0],[0.145,0.855,0],[0,0.5,0]];shape=mxgraph.bpmn.event;html=1;verticalLabelPosition=bottom;labelBackgroundColor=#ffffff;verticalAlign=top;align=center;perimeter=ellipsePerimeter;outlineConnect=0;aspect=fixed;outline=standard;symbol=general;" vertex="1" parent="dNxyNK7c78bLwvsdeMH5-20">
          <mxGeometry x="35" y="35" width="30" height="30" as="geometry" />
        </mxCell>
        <mxCell id="s78XeC1ukGy34A1hPwvS-6" value="&lt;br&gt;Draft PRD" style="rounded=1;whiteSpace=wrap;html=1;verticalAlign=top;labelBackgroundColor=#ffffff;fillStyle=solid;" vertex="1" parent="dNxyNK7c78bLwvsdeMH5-20">
          <mxGeometry x="100" y="20" width="120" height="60" as="geometry" />
        </mxCell>
        <mxCell id="dNxyNK7c78bLwvsdeMH5-21" value="Designer" style="swimlane;html=1;startSize=20;horizontal=0;" parent="dNxyNK7c78bLwvsdeMH5-19" vertex="1">
          <mxGeometry x="20" y="110" width="430" height="185" as="geometry" />
        </mxCell>
        <mxCell id="s78XeC1ukGy34A1hPwvS-29" value="" style="edgeStyle=orthogonalEdgeStyle;rounded=0;orthogonalLoop=1;jettySize=auto;html=1;" edge="1" parent="dNxyNK7c78bLwvsdeMH5-21" source="s78XeC1ukGy34A1hPwvS-8" target="s78XeC1ukGy34A1hPwvS-23">
          <mxGeometry relative="1" as="geometry" />
        </mxCell>
        <mxCell id="s78XeC1ukGy34A1hPwvS-8" value="Create wireframe&lt;br&gt;and&lt;br&gt;UI Pages" style="whiteSpace=wrap;html=1;verticalAlign=top;rounded=1;labelBackgroundColor=#ffffff;" vertex="1" parent="dNxyNK7c78bLwvsdeMH5-21">
          <mxGeometry x="100" y="30" width="120" height="60" as="geometry" />
        </mxCell>
        <mxCell id="s78XeC1ukGy34A1hPwvS-23" value="" style="points=[[0.25,0.25,0],[0.5,0,0],[0.75,0.25,0],[1,0.5,0],[0.75,0.75,0],[0.5,1,0],[0.25,0.75,0],[0,0.5,0]];shape=mxgraph.bpmn.gateway2;html=1;verticalLabelPosition=bottom;labelBackgroundColor=#ffffff;verticalAlign=top;align=center;perimeter=rhombusPerimeter;outlineConnect=0;outline=none;symbol=none;" vertex="1" parent="dNxyNK7c78bLwvsdeMH5-21">
          <mxGeometry x="295" y="35" width="50" height="50" as="geometry" />
        </mxCell>
        <mxCell id="dNxyNK7c78bLwvsdeMH5-22" value="Developer" style="swimlane;html=1;startSize=20;horizontal=0;" parent="dNxyNK7c78bLwvsdeMH5-19" vertex="1">
          <mxGeometry x="20" y="295" width="430" height="175" as="geometry" />
        </mxCell>
        <mxCell id="s78XeC1ukGy34A1hPwvS-10" value="Develope PRD and Pages" style="rounded=1;whiteSpace=wrap;html=1;verticalAlign=top;labelBackgroundColor=#ffffff;" vertex="1" parent="dNxyNK7c78bLwvsdeMH5-22">
          <mxGeometry x="100" y="57.5" width="120" height="60" as="geometry" />
        </mxCell>
        <mxCell id="s78XeC1ukGy34A1hPwvS-30" value="&lt;br&gt;Documentation" style="rounded=1;whiteSpace=wrap;html=1;verticalAlign=top;labelBackgroundColor=#ffffff;" vertex="1" parent="dNxyNK7c78bLwvsdeMH5-22">
          <mxGeometry x="245" y="57.5" width="120" height="60" as="geometry" />
        </mxCell>
        <mxCell id="s78XeC1ukGy34A1hPwvS-1" value="QA" style="swimlane;html=1;startSize=20;horizontal=0;" vertex="1" parent="dNxyNK7c78bLwvsdeMH5-19">
          <mxGeometry x="20" y="470" width="430" height="120" as="geometry" />
        </mxCell>
        <mxCell id="s78XeC1ukGy34A1hPwvS-17" value="Test Developed Features" style="rounded=1;whiteSpace=wrap;html=1;verticalAlign=top;labelBackgroundColor=#ffffff;" vertex="1" parent="s78XeC1ukGy34A1hPwvS-1">
          <mxGeometry x="100" y="30" width="120" height="60" as="geometry" />
        </mxCell>
        <mxCell id="s78XeC1ukGy34A1hPwvS-19" value="Ending&lt;br&gt;User Story" style="points=[[0.145,0.145,0],[0.5,0,0],[0.855,0.145,0],[1,0.5,0],[0.855,0.855,0],[0.5,1,0],[0.145,0.855,0],[0,0.5,0]];shape=mxgraph.bpmn.event;html=1;verticalLabelPosition=bottom;labelBackgroundColor=#ffffff;verticalAlign=top;align=center;perimeter=ellipsePerimeter;outlineConnect=0;aspect=fixed;outline=standard;symbol=general;" vertex="1" parent="s78XeC1ukGy34A1hPwvS-1">
          <mxGeometry x="375" y="45" width="30" height="30" as="geometry" />
        </mxCell>
        <mxCell id="s78XeC1ukGy34A1hPwvS-9" value="" style="edgeStyle=orthogonalEdgeStyle;rounded=0;orthogonalLoop=1;jettySize=auto;html=1;exitX=0.5;exitY=1;exitDx=0;exitDy=0;" edge="1" parent="dNxyNK7c78bLwvsdeMH5-19" source="s78XeC1ukGy34A1hPwvS-6" target="s78XeC1ukGy34A1hPwvS-8">
          <mxGeometry relative="1" as="geometry">
            <mxPoint x="180" y="150" as="sourcePoint" />
          </mxGeometry>
        </mxCell>
        <mxCell id="s78XeC1ukGy34A1hPwvS-11" value="" style="edgeStyle=orthogonalEdgeStyle;rounded=0;orthogonalLoop=1;jettySize=auto;html=1;exitX=0.5;exitY=1;exitDx=0;exitDy=0;exitPerimeter=0;" edge="1" parent="dNxyNK7c78bLwvsdeMH5-19" source="s78XeC1ukGy34A1hPwvS-23" target="s78XeC1ukGy34A1hPwvS-10">
          <mxGeometry relative="1" as="geometry">
            <Array as="points">
              <mxPoint x="340" y="260" />
              <mxPoint x="180" y="260" />
            </Array>
          </mxGeometry>
        </mxCell>
        <mxCell id="s78XeC1ukGy34A1hPwvS-18" value="" style="edgeStyle=orthogonalEdgeStyle;rounded=0;orthogonalLoop=1;jettySize=auto;html=1;" edge="1" parent="dNxyNK7c78bLwvsdeMH5-19" source="s78XeC1ukGy34A1hPwvS-10" target="s78XeC1ukGy34A1hPwvS-17">
          <mxGeometry relative="1" as="geometry" />
        </mxCell>
        <mxCell id="s78XeC1ukGy34A1hPwvS-28" value="" style="edgeStyle=orthogonalEdgeStyle;rounded=0;orthogonalLoop=1;jettySize=auto;html=1;exitX=1;exitY=0.5;exitDx=0;exitDy=0;entryX=0.5;entryY=0;entryDx=0;entryDy=0;entryPerimeter=0;" edge="1" parent="dNxyNK7c78bLwvsdeMH5-19" source="s78XeC1ukGy34A1hPwvS-6" target="s78XeC1ukGy34A1hPwvS-23">
          <mxGeometry relative="1" as="geometry">
            <mxPoint x="335" y="20" as="sourcePoint" />
            <mxPoint x="335" y="145" as="targetPoint" />
          </mxGeometry>
        </mxCell>
        <mxCell id="s78XeC1ukGy34A1hPwvS-20" value="" style="edgeStyle=orthogonalEdgeStyle;rounded=0;orthogonalLoop=1;jettySize=auto;html=1;entryX=0.5;entryY=1;entryDx=0;entryDy=0;" edge="1" parent="dNxyNK7c78bLwvsdeMH5-19" source="s78XeC1ukGy34A1hPwvS-17" target="s78XeC1ukGy34A1hPwvS-30">
          <mxGeometry relative="1" as="geometry" />
        </mxCell>
        <mxCell id="s78XeC1ukGy34A1hPwvS-31" value="" style="edgeStyle=orthogonalEdgeStyle;rounded=0;orthogonalLoop=1;jettySize=auto;html=1;entryX=0.5;entryY=0;entryDx=0;entryDy=0;exitX=1;exitY=0.5;exitDx=0;exitDy=0;entryPerimeter=0;" edge="1" parent="dNxyNK7c78bLwvsdeMH5-19" source="s78XeC1ukGy34A1hPwvS-30" target="s78XeC1ukGy34A1hPwvS-19">
          <mxGeometry relative="1" as="geometry">
            <mxPoint x="250" y="540" as="sourcePoint" />
            <mxPoint x="335" y="423" as="targetPoint" />
          </mxGeometry>
        </mxCell>
      </root>
    </mxGraphModel>
  </diagram>
</mxfile>
